<svg width="238" height="500" viewBox="0 0 238 500" fill="none" xmlns="http://www.w3.org/2000/svg">
<g clip-path="url(#clip0_26_7)">
<path d="M238 212.621V212.654C238 266.415 223.791 319.228 196.802 365.783C170.87 410.522 144.932 455.261 119 499.995L41.1978 365.783C14.2086 319.228 0 266.415 0 212.654V0L6.40696 11.0508C33.3962 57.6057 47.6 110.418 47.6 164.175V212.645C47.6 266.406 61.8086 319.218 88.7978 365.773L119.01 417.889C158.675 349.465 198.335 281.041 238 212.616V212.621Z" fill="white"/>
<path d="M238 106.313V106.346C238 160.107 223.791 212.92 196.802 259.475L119 393.687V393.654C119 339.893 133.209 287.08 160.198 240.526L238 106.313Z" fill="white"/>
<path d="M238 0.033215C238 53.7941 223.791 106.607 196.802 153.162L119 287.374V287.341C119 233.58 133.209 180.772 160.198 134.213L237.981 0.0284742C237.981 0.0284742 238 0.0237334 238 0.0284742V0.033215Z" fill="white"/>
</g>
<defs>
<clipPath id="clip0_26_7">
<rect width="238" height="500" fill="white"/>
</clipPath>
</defs>
</svg>
